<svg width="16" height="16" viewBox="0 0 16 16" fill="none" xmlns="http://www.w3.org/2000/svg">
<path d="M5.25284 12V11.3608L7.65341 8.73295C7.93513 8.42519 8.16714 8.15767 8.34943 7.9304C8.53172 7.70076 8.66667 7.48532 8.75426 7.28409C8.84422 7.08049 8.8892 6.86742 8.8892 6.64489C8.8892 6.3892 8.82765 6.16785 8.70455 5.98082C8.58381 5.7938 8.41809 5.64938 8.20739 5.54759C7.99669 5.44579 7.75994 5.39489 7.49716 5.39489C7.2178 5.39489 6.97396 5.45289 6.76562 5.56889C6.55966 5.68253 6.39986 5.84233 6.28622 6.0483C6.17495 6.25426 6.11932 6.49574 6.11932 6.77273H5.28125C5.28125 6.34659 5.3795 5.97254 5.57599 5.65057C5.77249 5.3286 6.04001 5.07765 6.37855 4.89773C6.71946 4.7178 7.1018 4.62784 7.52557 4.62784C7.9517 4.62784 8.32931 4.7178 8.65838 4.89773C8.98745 5.07765 9.2455 5.32031 9.43253 5.62571C9.61955 5.93111 9.71307 6.27083 9.71307 6.64489C9.71307 6.91241 9.66454 7.17401 9.56747 7.42969C9.47277 7.683 9.30705 7.96591 9.07031 8.27841C8.83594 8.58854 8.51042 8.96733 8.09375 9.41477L6.46023 11.1619V11.2188H9.84091V12H5.25284Z" fill="#6B778C"/>
<rect x="0.5" y="0.5" width="15" height="15" rx="7.5" stroke="#6B778C"/>
</svg>
