<svg width="16" height="16" viewBox="0 0 16 16" fill="none" xmlns="http://www.w3.org/2000/svg">
<path d="M7.71023 12.0994C7.24148 12.0994 6.82363 12.0189 6.45668 11.858C6.09209 11.697 5.80208 11.4732 5.58665 11.1868C5.37358 10.898 5.25758 10.563 5.23864 10.1818H6.13352C6.15246 10.4162 6.23295 10.6186 6.375 10.7891C6.51705 10.9571 6.70289 11.0874 6.93253 11.1797C7.16217 11.272 7.41667 11.3182 7.69602 11.3182C8.00852 11.3182 8.28551 11.2637 8.52699 11.1548C8.76847 11.0459 8.95786 10.8944 9.09517 10.7003C9.23248 10.5062 9.30114 10.2812 9.30114 10.0256C9.30114 9.75805 9.23485 9.52249 9.10227 9.31889C8.9697 9.11293 8.77557 8.95194 8.51989 8.83594C8.2642 8.71993 7.9517 8.66193 7.58239 8.66193H7V7.88068H7.58239C7.87121 7.88068 8.12453 7.8286 8.34233 7.72443C8.5625 7.62026 8.73414 7.47348 8.85724 7.28409C8.98272 7.0947 9.04545 6.87216 9.04545 6.61648C9.04545 6.37026 8.991 6.15601 8.8821 5.97372C8.7732 5.79143 8.61932 5.64938 8.42045 5.54759C8.22396 5.44579 7.99195 5.39489 7.72443 5.39489C7.47348 5.39489 7.23674 5.44105 7.0142 5.53338C6.79403 5.62334 6.61411 5.75473 6.47443 5.92756C6.33475 6.09801 6.259 6.30398 6.24716 6.54545H5.39489C5.40909 6.1643 5.52391 5.83049 5.73935 5.54403C5.95478 5.25521 6.23651 5.0303 6.58452 4.86932C6.9349 4.70833 7.3196 4.62784 7.73864 4.62784C8.18845 4.62784 8.57434 4.71899 8.89631 4.90128C9.21828 5.0812 9.46567 5.31913 9.63849 5.61506C9.81132 5.91098 9.89773 6.23059 9.89773 6.57386C9.89773 6.98343 9.79001 7.33262 9.57457 7.62145C9.36151 7.91027 9.0715 8.11032 8.70455 8.22159V8.27841C9.16383 8.35417 9.52249 8.54948 9.78054 8.86435C10.0386 9.17685 10.1676 9.56392 10.1676 10.0256C10.1676 10.4209 10.0599 10.776 9.84446 11.0909C9.63139 11.4034 9.3402 11.6496 8.97088 11.8295C8.60156 12.0095 8.18134 12.0994 7.71023 12.0994Z" fill="#6B778C"/>
<rect x="0.5" y="0.5" width="15" height="15" rx="7.5" stroke="#6B778C"/>
</svg>
