<svg width="14" height="12" viewBox="0 0 14 12" fill="none" xmlns="http://www.w3.org/2000/svg">
<path d="M12.3335 8.16616L13.1868 9.86616C13.2382 9.96815 13.2626 10.0816 13.2575 10.1957C13.2524 10.3098 13.2182 10.4207 13.1579 10.5178C13.0977 10.6148 13.0135 10.6947 12.9135 10.7499C12.8135 10.8051 12.701 10.8336 12.5868 10.8328H1.41351C1.2993 10.8336 1.18681 10.8051 1.08681 10.7499C0.986807 10.6947 0.902657 10.6148 0.842427 10.5178C0.782197 10.4207 0.747907 10.3098 0.742843 10.1957C0.73778 10.0816 0.762113 9.96815 0.81351 9.86616L1.66684 8.16616M12.3335 8.16616V2.16616C12.3335 1.81254 12.193 1.4734 11.943 1.22335C11.6929 0.9733 11.3538 0.832825 11.0002 0.832825H3.00018C2.64655 0.832825 2.30742 0.9733 2.05737 1.22335C1.80732 1.4734 1.66684 1.81254 1.66684 2.16616V8.16616H12.3335ZM12.3335 8.16616H1.66684H12.3335Z" stroke="#0D3CFE" stroke-linecap="round" stroke-linejoin="round"/>
</svg>
