<svg width="16" height="16" viewBox="0 0 16 16" fill="none" xmlns="http://www.w3.org/2000/svg">
<path d="M6.85998 2.57332L1.21332 12C1.0969 12.2016 1.03529 12.4302 1.03464 12.663C1.03399 12.8958 1.09431 13.1247 1.2096 13.327C1.32489 13.5293 1.49113 13.6978 1.69179 13.8159C1.89244 13.934 2.12052 13.9974 2.35332 14H13.6466C13.8794 13.9974 14.1075 13.934 14.3082 13.8159C14.5088 13.6978 14.6751 13.5293 14.7904 13.327C14.9057 13.1247 14.966 12.8958 14.9653 12.663C14.9647 12.4302 14.9031 12.2016 14.7866 12L9.13998 2.57332C9.02114 2.37739 8.8538 2.2154 8.65411 2.10298C8.45443 1.99056 8.22914 1.93149 7.99998 1.93149C7.77083 1.93149 7.54554 1.99056 7.34585 2.10298C7.14617 2.2154 6.97883 2.37739 6.85998 2.57332V2.57332Z" stroke="#FF4F51" stroke-linecap="round" stroke-linejoin="round"/>
<path d="M8 6V8.66667" stroke="#FF4F51" stroke-linecap="round" stroke-linejoin="round"/>
<path d="M8 11.3333H8.00667" stroke="#FF4F51" stroke-linecap="round" stroke-linejoin="round"/>
</svg>
