<svg width="16" height="16" viewBox="0 0 16 16" fill="none" xmlns="http://www.w3.org/2000/svg">
<path d="M10 4.66666H12C12.4377 4.66666 12.8712 4.75288 13.2756 4.9204C13.68 5.08791 14.0475 5.33345 14.357 5.64297C14.6666 5.9525 14.9121 6.31997 15.0796 6.72439C15.2471 7.1288 15.3333 7.56226 15.3333 8C15.3333 8.43774 15.2471 8.87119 15.0796 9.27561C14.9121 9.68003 14.6666 10.0475 14.357 10.357C14.0475 10.6665 13.68 10.9121 13.2756 11.0796C12.8712 11.2471 12.4377 11.3333 12 11.3333H10M6 11.3333H4C3.56227 11.3333 3.12881 11.2471 2.72439 11.0796C2.31997 10.9121 1.95251 10.6665 1.64298 10.357C1.01786 9.7319 0.666672 8.88405 0.666672 8C0.666672 7.11594 1.01786 6.2681 1.64298 5.64297C2.2681 5.01785 3.11595 4.66666 4 4.66666H6" stroke="#172B4D" stroke-linecap="round" stroke-linejoin="round"/>
<path d="M5.33333 8H10.6667" stroke="#172B4D" stroke-linecap="round" stroke-linejoin="round"/>
</svg>
