<svg width="16" height="16" viewBox="0 0 16 16" fill="none" xmlns="http://www.w3.org/2000/svg">
<path d="M12.6667 2.66666H3.33333C2.59695 2.66666 2 3.26361 2 3.99999V13.3333C2 14.0697 2.59695 14.6667 3.33333 14.6667H12.6667C13.403 14.6667 14 14.0697 14 13.3333V3.99999C14 3.26361 13.403 2.66666 12.6667 2.66666Z" stroke="#172B4D" stroke-linecap="round" stroke-linejoin="round"/>
<path d="M11.2437 8.2067H9.16965C9.00601 8.2067 8.87335 8.33935 8.87335 8.50299V10.5771C8.87335 10.7407 9.00601 10.8734 9.16965 10.8734H11.2437C11.4074 10.8734 11.54 10.7407 11.54 10.5771V8.50299C11.54 8.33935 11.4074 8.2067 11.2437 8.2067Z" fill="#172B4D"/>
<path d="M10.6667 1.33334V4.00001" stroke="#172B4D" stroke-linecap="round" stroke-linejoin="round"/>
<path d="M5.33331 1.33334V4.00001" stroke="#172B4D" stroke-linecap="round" stroke-linejoin="round"/>
<path d="M2 6.66666H14" stroke="#172B4D" stroke-linecap="round" stroke-linejoin="round"/>
</svg>
