<svg width="16" height="16" viewBox="0 0 16 16" fill="none" xmlns="http://www.w3.org/2000/svg">
<path d="M9.66665 2.66667H6.33331L4.66665 4.66667H2.66665C2.31302 4.66667 1.97389 4.80715 1.72384 5.0572C1.47379 5.30724 1.33331 5.64638 1.33331 6V12C1.33331 12.3536 1.47379 12.6928 1.72384 12.9428C1.97389 13.1929 2.31302 13.3333 2.66665 13.3333H13.3333C13.6869 13.3333 14.0261 13.1929 14.2761 12.9428C14.5262 12.6928 14.6666 12.3536 14.6666 12V6C14.6666 5.64638 14.5262 5.30724 14.2761 5.0572C14.0261 4.80715 13.6869 4.66667 13.3333 4.66667H11.3333L9.66665 2.66667Z" stroke="#172B4D" stroke-linecap="round" stroke-linejoin="round"/>
<path d="M8 10.6667C9.10457 10.6667 10 9.77124 10 8.66667C10 7.5621 9.10457 6.66667 8 6.66667C6.89543 6.66667 6 7.5621 6 8.66667C6 9.77124 6.89543 10.6667 8 10.6667Z" stroke="#172B4D" stroke-linecap="round" stroke-linejoin="round"/>
</svg>
