<svg width="16" height="16" viewBox="0 0 16 16" fill="none" xmlns="http://www.w3.org/2000/svg">
<g clip-path="url(#clip0_742_24956)">
<path d="M14.6667 7.38616V7.99949C14.6659 9.43711 14.2003 10.8359 13.3396 11.9874C12.4788 13.1388 11.2689 13.9811 9.89025 14.3888C8.51163 14.7964 7.03818 14.7474 5.68966 14.2492C4.34113 13.751 3.18978 12.8302 2.40732 11.6242C1.62485 10.4182 1.2532 8.99153 1.34779 7.55703C1.44239 6.12253 1.99815 4.75704 2.9322 3.66421C3.86625 2.57137 5.12853 1.80975 6.5308 1.49292C7.93307 1.1761 9.40019 1.32105 10.7133 1.90616" stroke="#00B782" stroke-linecap="round" stroke-linejoin="round"/>
<path d="M14.6667 2.66617L8 9.3395L6 7.3395" stroke="#00B782" stroke-linecap="round" stroke-linejoin="round"/>
</g>
<defs>
<clipPath id="clip0_742_24956">
<rect width="16" height="16" fill="white" transform="translate(0 -0.000488281)"/>
</clipPath>
</defs>
</svg>
