<svg width="168" height="168" viewBox="0 0 168 168" fill="none" xmlns="http://www.w3.org/2000/svg">
<rect width="168" height="168" rx="84" fill="#C9FBD9" fill-opacity="0.24"/>
<path d="M124 80.3199V83.9999C123.995 92.6255 121.202 101.019 116.037 107.927C110.873 114.836 103.613 119.89 95.3414 122.335C87.0697 124.781 78.229 124.487 70.1379 121.498C62.0467 118.509 55.1386 112.984 50.4438 105.748C45.7491 98.512 43.5192 89.9521 44.0867 81.3451C44.6542 72.7381 47.9888 64.5452 53.5931 57.9881C59.1974 51.4311 66.7711 46.8614 75.1848 44.9604C83.5984 43.0595 92.4011 43.9292 100.28 47.4399" stroke="#34D396" stroke-width="4" stroke-linecap="round" stroke-linejoin="round"/>
<path d="M124 51.9999L84 92.0399L72 80.0399" stroke="#4970FE" stroke-width="4" stroke-linecap="round" stroke-linejoin="round"/>
</svg>
