<svg width="14" height="12" viewBox="0 0 14 12" fill="none" xmlns="http://www.w3.org/2000/svg">
<path d="M12.3333 8.66668L13.1867 10.3667C13.2381 10.4687 13.2624 10.5822 13.2573 10.6963C13.2523 10.8103 13.218 10.9212 13.1577 11.0183C13.0975 11.1153 13.0134 11.1952 12.9134 11.2504C12.8134 11.3056 12.7009 11.3341 12.5867 11.3333H1.41333C1.29912 11.3341 1.18662 11.3056 1.08662 11.2504C0.986624 11.1952 0.902474 11.1153 0.842244 11.0183C0.782014 10.9212 0.747724 10.8103 0.74266 10.6963C0.737596 10.5822 0.76193 10.4687 0.813327 10.3667L1.66666 8.66668M12.3333 8.66668V2.66668C12.3333 2.31305 12.1929 1.97392 11.9428 1.72387C11.6928 1.47382 11.3536 1.33334 11 1.33334H2.99999C2.64637 1.33334 2.30723 1.47382 2.05718 1.72387C1.80714 1.97392 1.66666 2.31305 1.66666 2.66668V8.66668H12.3333ZM12.3333 8.66668H1.66666H12.3333Z" stroke="#172B4D" stroke-linecap="round" stroke-linejoin="round"/>
</svg>
