<svg width="8" height="16" viewBox="0 0 8 16" fill="none" xmlns="http://www.w3.org/2000/svg">
<path d="M3.47727 13.0919V2.18279H4.17614V13.0919H3.47727ZM5.82955 5.45552C5.77841 5.0237 5.57102 4.68848 5.20739 4.44984C4.84375 4.2112 4.39773 4.09189 3.86932 4.09189C3.48295 4.09189 3.14489 4.15439 2.85511 4.27939C2.56818 4.40439 2.34375 4.57626 2.18182 4.79501C2.02273 5.01376 1.94318 5.26234 1.94318 5.54075C1.94318 5.7737 1.99858 5.97399 2.10938 6.1416C2.22301 6.30637 2.3679 6.44416 2.54403 6.55495C2.72017 6.66291 2.90483 6.7524 3.09801 6.82342C3.29119 6.8916 3.46875 6.947 3.63068 6.98961L4.51705 7.22825C4.74432 7.28791 4.99716 7.37029 5.27557 7.47541C5.55682 7.58052 5.82528 7.72399 6.08097 7.90581C6.33949 8.08478 6.55256 8.3149 6.72017 8.59615C6.88778 8.8774 6.97159 9.22257 6.97159 9.63166C6.97159 10.1032 6.84801 10.5294 6.60085 10.9101C6.35653 11.2907 5.99858 11.5933 5.52699 11.8177C5.05824 12.0422 4.48864 12.1544 3.81818 12.1544C3.19318 12.1544 2.65199 12.0535 2.1946 11.8518C1.74006 11.6501 1.3821 11.3689 1.12074 11.0081C0.862216 10.6473 0.715909 10.2282 0.681818 9.75098H1.77273C1.80114 10.0805 1.91193 10.3532 2.10511 10.5692C2.30114 10.7822 2.5483 10.9413 2.84659 11.0464C3.14773 11.1487 3.47159 11.1998 3.81818 11.1998C4.22159 11.1998 4.58381 11.1345 4.90483 11.0038C5.22585 10.8703 5.48011 10.6856 5.66761 10.4498C5.85511 10.2112 5.94886 9.93279 5.94886 9.61461C5.94886 9.32484 5.8679 9.08904 5.70597 8.90723C5.54403 8.72541 5.33097 8.57768 5.06676 8.46404C4.80256 8.35041 4.51705 8.25098 4.21023 8.16575L3.13636 7.85893C2.45455 7.66291 1.91477 7.38308 1.51705 7.01944C1.11932 6.65581 0.920455 6.17995 0.920455 5.59189C0.920455 5.10325 1.05256 4.67711 1.31676 4.31348C1.58381 3.947 1.94176 3.66291 2.39062 3.4612C2.84233 3.25666 3.34659 3.15439 3.90341 3.15439C4.46591 3.15439 4.96591 3.25524 5.40341 3.45694C5.84091 3.65581 6.1875 3.92853 6.44318 4.27512C6.7017 4.62171 6.83807 5.01518 6.85227 5.45552H5.82955Z" fill="#172B4D"/>
</svg>
