<svg width="20" height="20" viewBox="0 0 20 20" fill="none" xmlns="http://www.w3.org/2000/svg">
<rect x="2.5" y="2.5" width="15" height="15" rx="7.5" fill="#4970FE"/>
<path opacity="0.7" d="M10.5 10C10.5 9.72386 10.2761 9.5 10 9.5C9.72386 9.5 9.5 9.72386 9.5 10C9.5 10.2761 9.72386 10.5 10 10.5C10.2761 10.5 10.5 10.2761 10.5 10Z" stroke="white" stroke-linecap="round" stroke-linejoin="round"/>
<path d="M7 10C7 9.72386 6.77614 9.5 6.5 9.5C6.22386 9.5 6 9.72386 6 10C6 10.2761 6.22386 10.5 6.5 10.5C6.77614 10.5 7 10.2761 7 10Z" stroke="white" stroke-linecap="round" stroke-linejoin="round"/>
<path opacity="0.3" d="M14 10C14 9.72386 13.7761 9.5 13.5 9.5C13.2239 9.5 13 9.72386 13 10C13 10.2761 13.2239 10.5 13.5 10.5C13.7761 10.5 14 10.2761 14 10Z" stroke="white" stroke-linecap="round" stroke-linejoin="round"/>
<rect x="2.5" y="2.5" width="15" height="15" rx="7.5" stroke="#4970FE"/>
<rect x="0.5" y="0.5" width="19" height="19" rx="9.5" stroke="#0D3CFE"/>
</svg>
