<svg width="44" height="44" viewBox="0 0 44 44" fill="none" xmlns="http://www.w3.org/2000/svg">
<rect width="44" height="44" rx="22" fill="#EBF0FF"/>
<path d="M22 31.3334H32.5" stroke="#4970FE" stroke-width="2" stroke-linecap="round" stroke-linejoin="round"/>
<path d="M27.25 12.0834C27.7141 11.6193 28.3436 11.3585 29 11.3585C29.325 11.3585 29.6468 11.4225 29.9471 11.5469C30.2474 11.6713 30.5202 11.8536 30.75 12.0834C30.9798 12.3132 31.1621 12.586 31.2865 12.8863C31.4109 13.1866 31.4749 13.5084 31.4749 13.8334C31.4749 14.1584 31.4109 14.4802 31.2865 14.7805C31.1621 15.0808 30.9798 15.3536 30.75 15.5834L16.1667 30.1667L11.5 31.3334L12.6667 26.6667L27.25 12.0834Z" stroke="#4970FE" stroke-width="2" stroke-linecap="round" stroke-linejoin="round"/>
</svg>
