<svg width="16" height="16" viewBox="0 0 16 16" fill="none" xmlns="http://www.w3.org/2000/svg">
<path d="M7.52557 12.0994C7.1089 12.0994 6.73366 12.0166 6.39986 11.8509C6.06605 11.6851 5.79853 11.4579 5.5973 11.169C5.39607 10.8802 5.28598 10.5511 5.26705 10.1818H6.11932C6.15246 10.5109 6.30161 10.7831 6.56676 10.9986C6.83428 11.2116 7.15388 11.3182 7.52557 11.3182C7.82386 11.3182 8.08902 11.2483 8.32102 11.1087C8.5554 10.969 8.73887 10.7772 8.87145 10.5334C9.00639 10.2872 9.07386 10.009 9.07386 9.69886C9.07386 9.38163 9.00402 9.09872 8.86435 8.85014C8.72704 8.5992 8.53764 8.40152 8.29616 8.2571C8.05469 8.11269 7.77888 8.0393 7.46875 8.03693C7.24621 8.03456 7.01776 8.06889 6.78338 8.13991C6.54901 8.20857 6.35606 8.29735 6.20455 8.40625L5.38068 8.30682L5.82102 4.72727H9.59943V5.50852H6.55966L6.30398 7.65341H6.34659C6.49574 7.53504 6.68277 7.43679 6.90767 7.35866C7.13258 7.28054 7.36695 7.24148 7.6108 7.24148C8.05587 7.24148 8.45241 7.34801 8.80043 7.56108C9.1508 7.77178 9.42543 8.06061 9.62429 8.42756C9.82552 8.79451 9.92614 9.21354 9.92614 9.68466C9.92614 10.1487 9.82197 10.563 9.61364 10.9276C9.40767 11.2898 9.12358 11.5762 8.76136 11.7869C8.39915 11.9953 7.98722 12.0994 7.52557 12.0994Z" fill="#6B778C"/>
<rect x="0.5" y="0.5" width="15" height="15" rx="7.5" stroke="#6B778C"/>
</svg>
