<svg width="18" height="18" viewBox="0 0 18 18" fill="none" xmlns="http://www.w3.org/2000/svg">
<path d="M6 12.75L15 12.75C15.3978 12.75 15.7794 12.592 16.0607 12.3107C16.342 12.0294 16.5 11.6478 16.5 11.25V6.75C16.5 6.35218 16.342 5.97064 16.0607 5.68934C15.7794 5.40804 15.3978 5.25 15 5.25H12.0525C11.8054 5.24872 11.5625 5.18644 11.3453 5.06868C11.1281 4.95092 10.9434 4.78134 10.8075 4.575L10.1925 3.675C10.0566 3.46866 9.87187 3.29908 9.65468 3.18132C9.43748 3.06356 9.19456 3.00128 8.9475 3L6 3C5.60218 3 5.22064 3.15804 4.93934 3.43934C4.65804 3.72064 4.5 4.10218 4.5 4.5L4.5 11.25C4.5 12.075 5.175 12.75 6 12.75Z" stroke="#172B4D" stroke-linecap="round" stroke-linejoin="round"/>
<path d="M1.5 6L1.5 14.25C1.5 15.075 2.175 15.75 3 15.75L13.5 15.75" stroke="#172B4D" stroke-linecap="round" stroke-linejoin="round"/>
</svg>
