<svg width="16" height="16" viewBox="0 0 16 16" fill="none" xmlns="http://www.w3.org/2000/svg">
<path d="M5.99999 8.66667C6.36818 8.66667 6.66666 8.36819 6.66666 8C6.66666 7.63181 6.36818 7.33334 5.99999 7.33334C5.63181 7.33334 5.33333 7.63181 5.33333 8C5.33333 8.36819 5.63181 8.66667 5.99999 8.66667Z" stroke="#C1C7D0" stroke-width="1.5" stroke-linecap="round" stroke-linejoin="round"/>
<path d="M5.99999 4C6.36818 4 6.66666 3.70152 6.66666 3.33333C6.66666 2.96514 6.36818 2.66666 5.99999 2.66666C5.63181 2.66666 5.33333 2.96514 5.33333 3.33333C5.33333 3.70152 5.63181 4 5.99999 4Z" stroke="#C1C7D0" stroke-width="1.5" stroke-linecap="round" stroke-linejoin="round"/>
<path d="M5.99999 13.3333C6.36818 13.3333 6.66666 13.0349 6.66666 12.6667C6.66666 12.2985 6.36818 12 5.99999 12C5.63181 12 5.33333 12.2985 5.33333 12.6667C5.33333 13.0349 5.63181 13.3333 5.99999 13.3333Z" stroke="#C1C7D0" stroke-width="1.5" stroke-linecap="round" stroke-linejoin="round"/>
<path d="M10 8.66667C10.3682 8.66667 10.6667 8.36819 10.6667 8C10.6667 7.63181 10.3682 7.33334 10 7.33334C9.63181 7.33334 9.33333 7.63181 9.33333 8C9.33333 8.36819 9.63181 8.66667 10 8.66667Z" stroke="#C1C7D0" stroke-width="1.5" stroke-linecap="round" stroke-linejoin="round"/>
<path d="M10 4C10.3682 4 10.6667 3.70152 10.6667 3.33333C10.6667 2.96514 10.3682 2.66666 10 2.66666C9.63181 2.66666 9.33333 2.96514 9.33333 3.33333C9.33333 3.70152 9.63181 4 10 4Z" stroke="#C1C7D0" stroke-width="1.5" stroke-linecap="round" stroke-linejoin="round"/>
<path d="M10 13.3333C10.3682 13.3333 10.6667 13.0349 10.6667 12.6667C10.6667 12.2985 10.3682 12 10 12C9.63181 12 9.33333 12.2985 9.33333 12.6667C9.33333 13.0349 9.63181 13.3333 10 13.3333Z" stroke="#C1C7D0" stroke-width="1.5" stroke-linecap="round" stroke-linejoin="round"/>
</svg>
