<svg width="16" height="16" viewBox="0 0 16 16" fill="none" xmlns="http://www.w3.org/2000/svg">
<path fill-rule="evenodd" clip-rule="evenodd" d="M3.16669 1.33228C3.03408 1.33228 2.9069 1.38495 2.81313 1.47872C2.71937 1.57249 2.66669 1.69967 2.66669 1.83228C2.66669 1.96488 2.71937 2.09206 2.81313 2.18583C2.9069 2.2796 3.03408 2.33228 3.16669 2.33228H3.66669V4.32028C3.66669 4.85503 3.80211 5.38107 4.06032 5.84935C4.31853 6.31763 4.69112 6.71289 5.14335 6.99828L6.50602 7.85828C6.5297 7.87332 6.5492 7.8941 6.56271 7.91869C6.57621 7.94328 6.5833 7.97089 6.5833 7.99894C6.5833 8.027 6.57621 8.0546 6.56271 8.07919C6.5492 8.10378 6.5297 8.12456 6.50602 8.13961L5.14335 8.99961C4.69112 9.285 4.31853 9.68026 4.06032 10.1485C3.80211 10.6168 3.66669 11.1429 3.66669 11.6776V13.6656H3.16669C3.03408 13.6656 2.9069 13.7183 2.81313 13.8121C2.71937 13.9058 2.66669 14.033 2.66669 14.1656C2.66669 14.2982 2.71937 14.4254 2.81313 14.5192C2.9069 14.6129 3.03408 14.6656 3.16669 14.6656H12.8334C12.966 14.6656 13.0931 14.6129 13.1869 14.5192C13.2807 14.4254 13.3334 14.2982 13.3334 14.1656C13.3334 14.033 13.2807 13.9058 13.1869 13.8121C13.0931 13.7183 12.966 13.6656 12.8334 13.6656H12.3334V11.6776C12.3334 11.1429 12.1979 10.6168 11.9397 10.1485C11.6815 9.68026 11.3089 9.285 10.8567 8.99961L9.49402 8.13961C9.47034 8.12456 9.45084 8.10378 9.43734 8.07919C9.42383 8.0546 9.41674 8.027 9.41674 7.99894C9.41674 7.97089 9.42383 7.94328 9.43734 7.91869C9.45084 7.8941 9.47034 7.87332 9.49402 7.85828L10.8567 6.99828C11.3089 6.71289 11.6815 6.31763 11.9397 5.84935C12.1979 5.38107 12.3334 4.85503 12.3334 4.32028V2.33228H12.8334C12.966 2.33228 13.0931 2.2796 13.1869 2.18583C13.2807 2.09206 13.3334 1.96488 13.3334 1.83228C13.3334 1.69967 13.2807 1.57249 13.1869 1.47872C13.0931 1.38495 12.966 1.33228 12.8334 1.33228H3.16669ZM11.3334 2.33228H4.66669V4.32028C4.66677 4.68613 4.7595 5.04601 4.93623 5.36636C5.11295 5.6867 5.36792 5.95708 5.67735 6.15228L7.04002 7.01228C7.20665 7.11742 7.34393 7.26304 7.43907 7.43557C7.53421 7.6081 7.58411 7.80192 7.58411 7.99894C7.58411 8.19597 7.53421 8.38978 7.43907 8.56231C7.34393 8.73484 7.20665 8.88047 7.04002 8.98561L5.67735 9.84561C5.36792 10.0408 5.11295 10.3112 4.93623 10.6315C4.7595 10.9519 4.66677 11.3118 4.66669 11.6776V13.6656H11.3334V11.6776C11.3333 11.3118 11.2405 10.9519 11.0638 10.6315C10.8871 10.3112 10.6321 10.0408 10.3227 9.84561L8.96002 8.98561C8.79339 8.88047 8.65611 8.73484 8.56097 8.56231C8.46583 8.38978 8.41593 8.19597 8.41593 7.99894C8.41593 7.80192 8.46583 7.6081 8.56097 7.43557C8.65611 7.26304 8.79339 7.11742 8.96002 7.01228L10.3227 6.15228C10.6321 5.95708 10.8871 5.6867 11.0638 5.36636C11.2405 5.04601 11.3333 4.68613 11.3334 4.32028V2.33228Z" fill="#C1C7D0"/>
</svg>
