<svg width="16" height="16" viewBox="0 0 16 16" fill="none" xmlns="http://www.w3.org/2000/svg">
<path d="M6 12H10" stroke="#FF4F51" stroke-linecap="round" stroke-linejoin="round"/>
<path d="M6.66667 14.6667H9.33334" stroke="#FF4F51" stroke-linecap="round" stroke-linejoin="round"/>
<path d="M10.06 9.33333C10.18 8.67999 10.4933 8.17333 11 7.66666C11.3219 7.37033 11.5774 7.00921 11.7498 6.60705C11.9222 6.20489 12.0074 5.7708 12 5.33333C12 4.27246 11.5786 3.25505 10.8284 2.5049C10.0783 1.75476 9.06087 1.33333 8 1.33333C6.93913 1.33333 5.92172 1.75476 5.17157 2.5049C4.42143 3.25505 4 4.27246 4 5.33333C4 5.99999 4.15333 6.81999 5 7.66666C5.4827 8.10804 5.812 8.6919 5.94 9.33333" stroke="#FFC148" stroke-linecap="round" stroke-linejoin="round"/>
</svg>
