<svg width="16" height="16" viewBox="0 0 16 16" fill="none" xmlns="http://www.w3.org/2000/svg">
<g clip-path="url(#clip0_5093_7191)">
<path d="M1.33325 8.00006H3.33325" stroke="#172B4D" stroke-linecap="round" stroke-linejoin="round"/>
<path d="M12.6667 8.00006H14.6667" stroke="#172B4D" stroke-linecap="round" stroke-linejoin="round"/>
<path d="M8 1.3334V3.3334" stroke="#172B4D" stroke-linecap="round" stroke-linejoin="round"/>
<path d="M8 12.6667V14.6667" stroke="#172B4D" stroke-linecap="round" stroke-linejoin="round"/>
<path d="M7.99992 12.6667C10.5772 12.6667 12.6666 10.5774 12.6666 8.00006C12.6666 5.42273 10.5772 3.3334 7.99992 3.3334C5.42259 3.3334 3.33325 5.42273 3.33325 8.00006C3.33325 10.5774 5.42259 12.6667 7.99992 12.6667Z" stroke="#172B4D" stroke-linecap="round" stroke-linejoin="round"/>
<path d="M8 10.0001C9.10457 10.0001 10 9.10463 10 8.00006C10 6.89549 9.10457 6.00006 8 6.00006C6.89543 6.00006 6 6.89549 6 8.00006C6 9.10463 6.89543 10.0001 8 10.0001Z" stroke="#172B4D" stroke-linecap="round" stroke-linejoin="round"/>
</g>
<defs>
<clipPath id="clip0_5093_7191">
<rect width="16" height="16" fill="white"/>
</clipPath>
</defs>
</svg>
