<svg width="16" height="16" viewBox="0 0 16 16" fill="none" xmlns="http://www.w3.org/2000/svg">
<g clip-path="url(#clip0_1448_7016)">
<path d="M14 6.66617C14 11.3328 8 15.3328 8 15.3328C8 15.3328 2 11.3328 2 6.66617C2 5.07487 2.63214 3.54875 3.75736 2.42353C4.88258 1.29831 6.4087 0.666168 8 0.666168C9.5913 0.666168 11.1174 1.29831 12.2426 2.42353C13.3679 3.54875 14 5.07487 14 6.66617Z" stroke="#172B4D" stroke-linecap="round" stroke-linejoin="round"/>
<path d="M8 8.66617C9.10457 8.66617 10 7.77074 10 6.66617C10 5.5616 9.10457 4.66617 8 4.66617C6.89543 4.66617 6 5.5616 6 6.66617C6 7.77074 6.89543 8.66617 8 8.66617Z" stroke="#172B4D" stroke-linecap="round" stroke-linejoin="round"/>
</g>
<defs>
<clipPath id="clip0_1448_7016">
<rect width="16" height="16" fill="white" transform="translate(0 -0.000488281)"/>
</clipPath>
</defs>
</svg>
