<svg width="12" height="12" viewBox="0 0 12 12" fill="none" xmlns="http://www.w3.org/2000/svg">
<path d="M6 6.50049C6.27614 6.50049 6.5 6.27663 6.5 6.00049C6.5 5.72435 6.27614 5.50049 6 5.50049C5.72386 5.50049 5.5 5.72435 5.5 6.00049C5.5 6.27663 5.72386 6.50049 6 6.50049Z" stroke="#172B4D" stroke-linecap="round" stroke-linejoin="round"/>
<path d="M6 3.00049C6.27614 3.00049 6.5 2.77663 6.5 2.50049C6.5 2.22435 6.27614 2.00049 6 2.00049C5.72386 2.00049 5.5 2.22435 5.5 2.50049C5.5 2.77663 5.72386 3.00049 6 3.00049Z" stroke="#172B4D" stroke-linecap="round" stroke-linejoin="round"/>
<path d="M6 10.0005C6.27614 10.0005 6.5 9.77663 6.5 9.50049C6.5 9.22435 6.27614 9.00049 6 9.00049C5.72386 9.00049 5.5 9.22435 5.5 9.50049C5.5 9.77663 5.72386 10.0005 6 10.0005Z" stroke="#172B4D" stroke-linecap="round" stroke-linejoin="round"/>
</svg>
