<svg width="26" height="26" viewBox="0 0 26 26" fill="none" xmlns="http://www.w3.org/2000/svg">
<path d="M1 13C1 6.37258 6.37258 1 13 1C19.6274 1 25 6.37258 25 13C25 19.6274 19.6274 25 13 25C6.37258 25 1 19.6274 1 13Z" fill="white"/>
<path d="M17.6667 19H8.33333C7.97971 19 7.64057 18.8595 7.39052 18.6095C7.14048 18.3594 7 18.0203 7 17.6667V8.33333C7 7.97971 7.14048 7.64057 7.39052 7.39052C7.64057 7.14048 7.97971 7 8.33333 7H15.6667L19 10.3333V17.6667C19 18.0203 18.8595 18.3594 18.6095 18.6095C18.3594 18.8595 18.0203 19 17.6667 19Z" stroke="#172B4D" stroke-linecap="round" stroke-linejoin="round"/>
<path d="M16.3333 19.0001V13.6667H9.66667V19.0001" stroke="#172B4D" stroke-linecap="round" stroke-linejoin="round"/>
<path d="M9.66667 7V10.3333H15" stroke="#172B4D" stroke-linecap="round" stroke-linejoin="round"/>
<path d="M13 24C6.92487 24 2 19.0751 2 13H0C0 20.1797 5.8203 26 13 26V24ZM24 13C24 19.0751 19.0751 24 13 24V26C20.1797 26 26 20.1797 26 13H24ZM13 2C19.0751 2 24 6.92487 24 13H26C26 5.8203 20.1797 0 13 0V2ZM13 0C5.8203 0 0 5.8203 0 13H2C2 6.92487 6.92487 2 13 2V0Z" fill="#EBECF0"/>
</svg>
