<svg width="28" height="28" viewBox="0 0 28 28" fill="none" xmlns="http://www.w3.org/2000/svg">
<path d="M14 17.5C15.933 17.5 17.5 15.933 17.5 14C17.5 12.067 15.933 10.5 14 10.5C12.067 10.5 10.5 12.067 10.5 14C10.5 15.933 12.067 17.5 14 17.5Z" stroke="#4970FE" stroke-width="2" stroke-linecap="round" stroke-linejoin="round"/>
<path d="M22.6333 17.5C22.478 17.8519 22.4317 18.2422 22.5003 18.6207C22.569 18.9992 22.7494 19.3484 23.0183 19.6234L23.0883 19.6934C23.3053 19.9101 23.4774 20.1674 23.5948 20.4507C23.7122 20.7339 23.7727 21.0376 23.7727 21.3442C23.7727 21.6508 23.7122 21.9545 23.5948 22.2377C23.4774 22.521 23.3053 22.7783 23.0883 22.995C22.8716 23.212 22.6143 23.3841 22.331 23.5015C22.0478 23.6189 21.7441 23.6794 21.4375 23.6794C21.1309 23.6794 20.8272 23.6189 20.544 23.5015C20.2607 23.3841 20.0034 23.212 19.7867 22.995L19.7167 22.925C19.4417 22.6561 19.0925 22.4756 18.714 22.407C18.3356 22.3384 17.9452 22.3847 17.5933 22.54C17.2483 22.6879 16.954 22.9335 16.7467 23.2465C16.5394 23.5595 16.4282 23.9263 16.4267 24.3017V24.5C16.4267 25.1189 16.1808 25.7124 15.7433 26.1499C15.3057 26.5875 14.7122 26.8334 14.0933 26.8334C13.4745 26.8334 12.881 26.5875 12.4434 26.1499C12.0058 25.7124 11.76 25.1189 11.76 24.5V24.395C11.751 24.0089 11.626 23.6343 11.4013 23.3202C11.1766 23.006 10.8625 22.7667 10.5 22.6334C10.1481 22.4781 9.75778 22.4317 9.37932 22.5003C9.00086 22.569 8.65163 22.7494 8.37667 23.0184L8.30667 23.0884C8.08997 23.3053 7.83263 23.4774 7.54936 23.5948C7.2661 23.7122 6.96247 23.7727 6.65584 23.7727C6.3492 23.7727 6.04557 23.7122 5.76231 23.5948C5.47905 23.4774 5.22171 23.3053 5.005 23.0884C4.78806 22.8717 4.61596 22.6143 4.49853 22.331C4.38111 22.0478 4.32067 21.7442 4.32067 21.4375C4.32067 21.1309 4.38111 20.8273 4.49853 20.544C4.61596 20.2607 4.78806 20.0034 5.005 19.7867L5.075 19.7167C5.34396 19.4417 5.52439 19.0925 5.59301 18.714C5.66163 18.3356 5.61531 17.9452 5.46 17.5934C5.31211 17.2483 5.06655 16.954 4.75355 16.7467C4.44054 16.5394 4.07376 16.4282 3.69834 16.4267H3.5C2.88117 16.4267 2.28767 16.1809 1.85009 15.7433C1.4125 15.3057 1.16667 14.7122 1.16667 14.0934C1.16667 13.4745 1.4125 12.881 1.85009 12.4434C2.28767 12.0059 2.88117 11.76 3.5 11.76H3.605C3.99116 11.751 4.36568 11.626 4.67985 11.4013C4.99403 11.1766 5.23334 10.8625 5.36667 10.5C5.52197 10.1481 5.5683 9.75779 5.49968 9.37933C5.43105 9.00087 5.25063 8.65165 4.98167 8.37669L4.91167 8.30669C4.69473 8.08998 4.52262 7.83264 4.4052 7.54938C4.28778 7.26612 4.22734 6.96249 4.22734 6.65585C4.22734 6.34922 4.28778 6.04559 4.4052 5.76233C4.52262 5.47906 4.69473 5.22172 4.91167 5.00502C5.12838 4.78808 5.38571 4.61597 5.66898 4.49855C5.95224 4.38112 6.25587 4.32068 6.5625 4.32068C6.86914 4.32068 7.17277 4.38112 7.45603 4.49855C7.73929 4.61597 7.99663 4.78808 8.21334 5.00502L8.28334 5.07502C8.5583 5.34398 8.90752 5.5244 9.28598 5.59303C9.66444 5.66165 10.0548 5.61532 10.4067 5.46002H10.5C10.8451 5.31213 11.1394 5.06657 11.3466 4.75356C11.5539 4.44056 11.6652 4.07377 11.6667 3.69835V3.50002C11.6667 2.88118 11.9125 2.28769 12.3501 1.8501C12.7877 1.41252 13.3812 1.16669 14 1.16669C14.6188 1.16669 15.2123 1.41252 15.6499 1.8501C16.0875 2.28769 16.3333 2.88118 16.3333 3.50002V3.60502C16.3348 3.98044 16.4461 4.34722 16.6534 4.66023C16.8606 4.97324 17.1549 5.2188 17.5 5.36669C17.8519 5.52199 18.2422 5.56831 18.6207 5.49969C18.9992 5.43107 19.3484 5.25065 19.6233 4.98169L19.6933 4.91169C19.91 4.69474 20.1674 4.52264 20.4506 4.40521C20.7339 4.28779 21.0375 4.22735 21.3442 4.22735C21.6508 4.22735 21.9544 4.28779 22.2377 4.40521C22.521 4.52264 22.7783 4.69474 22.995 4.91169C23.2119 5.12839 23.3841 5.38573 23.5015 5.66899C23.6189 5.95226 23.6793 6.25588 23.6793 6.56252C23.6793 6.86916 23.6189 7.17279 23.5015 7.45605C23.3841 7.73931 23.2119 7.99665 22.995 8.21335L22.925 8.28335C22.656 8.55831 22.4756 8.90754 22.407 9.286C22.3384 9.66446 22.3847 10.0548 22.54 10.4067V10.5C22.6879 10.8451 22.9335 11.1394 23.2465 11.3467C23.5595 11.5539 23.9263 11.6652 24.3017 11.6667H24.5C25.1188 11.6667 25.7123 11.9125 26.1499 12.3501C26.5875 12.7877 26.8333 13.3812 26.8333 14C26.8333 14.6189 26.5875 15.2124 26.1499 15.6499C25.7123 16.0875 25.1188 16.3334 24.5 16.3334H24.395C24.0196 16.3349 23.6528 16.4461 23.3398 16.6534C23.0268 16.8607 22.7812 17.155 22.6333 17.5V17.5Z" stroke="#4970FE" stroke-width="2" stroke-linecap="round" stroke-linejoin="round"/>
</svg>
