<svg width="16" height="16" viewBox="0 0 16 16" fill="none" xmlns="http://www.w3.org/2000/svg">
<path d="M7.66761 12.0994C7.36932 12.0947 7.07102 12.0379 6.77273 11.929C6.47443 11.8201 6.20218 11.6366 5.95597 11.3786C5.70975 11.1181 5.51207 10.7666 5.36293 10.3239C5.21378 9.87879 5.1392 9.32008 5.1392 8.64773C5.1392 8.00379 5.19957 7.43324 5.32031 6.93608C5.44105 6.43655 5.61624 6.01634 5.84588 5.67543C6.07552 5.33215 6.35251 5.07173 6.67685 4.89418C7.00355 4.71662 7.37169 4.62784 7.78125 4.62784C8.18845 4.62784 8.55066 4.70952 8.8679 4.87287C9.1875 5.03385 9.44792 5.25876 9.64915 5.54759C9.85038 5.83641 9.98059 6.16903 10.0398 6.54545H9.1733C9.0928 6.21875 8.93655 5.94768 8.70455 5.73224C8.47254 5.51681 8.16477 5.40909 7.78125 5.40909C7.2178 5.40909 6.77391 5.65412 6.44957 6.14418C6.1276 6.63423 5.96544 7.32197 5.96307 8.20739H6.01989C6.15246 8.00616 6.3099 7.83452 6.49219 7.69247C6.67685 7.54806 6.88045 7.43679 7.10298 7.35866C7.32552 7.28054 7.56108 7.24148 7.80966 7.24148C8.22633 7.24148 8.60748 7.34564 8.95312 7.55398C9.29877 7.75994 9.57576 8.04522 9.78409 8.4098C9.99242 8.77202 10.0966 9.1875 10.0966 9.65625C10.0966 10.1061 9.99598 10.518 9.79474 10.892C9.59351 11.2637 9.31061 11.5597 8.94602 11.7798C8.58381 11.9976 8.15767 12.1042 7.66761 12.0994ZM7.66761 11.3182C7.96591 11.3182 8.23343 11.2436 8.47017 11.0945C8.70928 10.9453 8.89749 10.7453 9.0348 10.4943C9.17448 10.2434 9.24432 9.96402 9.24432 9.65625C9.24432 9.35559 9.17685 9.08215 9.0419 8.83594C8.90933 8.58736 8.72585 8.38968 8.49148 8.2429C8.25947 8.09612 7.99432 8.02273 7.69602 8.02273C7.47112 8.02273 7.2616 8.06771 7.06747 8.15767C6.87334 8.24527 6.70289 8.366 6.55611 8.51989C6.4117 8.67377 6.29806 8.85014 6.2152 9.04901C6.13234 9.2455 6.09091 9.45265 6.09091 9.67045C6.09091 9.95928 6.15838 10.2292 6.29332 10.4801C6.43063 10.7311 6.61766 10.9335 6.8544 11.0874C7.09351 11.2412 7.36458 11.3182 7.66761 11.3182Z" fill="#6B778C"/>
<rect x="0.5" y="0.5" width="15" height="15" rx="7.5" stroke="#6B778C"/>
</svg>
