<svg width="16" height="16" viewBox="0 0 16 16" fill="none" xmlns="http://www.w3.org/2000/svg">
<rect y="0.533325" width="13.1282" height="13.1282" rx="6.5641" fill="url(#paint0_linear_912_1834)"/>
<path d="M12.1116 15.7093C13.1787 15.6424 14.1786 15.1709 14.9028 14.3928C15.6271 13.6148 16.0198 12.5904 15.9993 11.533C15.9787 10.4756 15.5464 9.46685 14.7924 8.71696C14.0385 7.96707 13.021 7.53388 11.9521 7.50769H8.58616C8.37631 7.50769 8.17506 7.59014 8.02667 7.73691C7.87829 7.88368 7.79493 8.08274 7.79493 8.2903V11.6069C7.79401 12.1601 7.90633 12.7078 8.1251 13.217C8.34387 13.7261 8.66458 14.1862 9.0679 14.5695C9.47123 14.9528 9.94882 15.2514 10.4719 15.4473C10.995 15.6431 11.5528 15.7323 12.1116 15.7093Z" fill="#0073E6"/>
<circle cx="6.56407" cy="7.09739" r="4.42308" stroke="white" stroke-opacity="0.24"/>
<path d="M9.34621 7.09748C9.34621 8.63397 8.10064 9.87953 6.56415 9.87953C5.02767 9.87953 3.7821 8.63397 3.7821 7.09748C3.7821 5.561 5.02767 4.31543 6.56415 4.31543C8.10064 4.31543 9.34621 5.561 9.34621 7.09748Z" stroke="white" stroke-opacity="0.24"/>
<circle cx="6.56404" cy="7.09737" r="0.820513" fill="white" fill-opacity="0.24"/>
<path d="M8.22091 13.4238C8.18708 13.3558 8.15513 13.2869 8.1251 13.217C7.90721 12.7099 7.79492 12.1646 7.79492 11.6136C7.79492 11.6114 7.79492 11.6091 7.79493 11.6069V8.32516C7.79657 7.8734 8.16329 7.50769 8.61543 7.50769H11.9521C12.3553 7.51757 12.7511 7.58535 13.1283 7.70618V7.914C13.1283 10.7507 10.9945 13.1047 8.22091 13.4238Z" fill="url(#paint1_linear_912_1834)"/>
<defs>
<linearGradient id="paint0_linear_912_1834" x1="6.55278" y1="1.32074" x2="6.55278" y2="14.4443" gradientUnits="userSpaceOnUse">
<stop offset="0.1" stop-color="#FF80FF"/>
<stop offset="0.39" stop-color="#FF7BF9"/>
<stop offset="0.77" stop-color="#FF6EEA"/>
<stop offset="1" stop-color="#FF62DC"/>
</linearGradient>
<linearGradient id="paint1_linear_912_1834" x1="10.4616" y1="8.35989" x2="10.4616" y2="14.0346" gradientUnits="userSpaceOnUse">
<stop stop-color="#00299C"/>
<stop offset="1" stop-color="#0073E6"/>
</linearGradient>
</defs>
</svg>
