<svg width="16" height="16" viewBox="0 0 16 16" fill="none" xmlns="http://www.w3.org/2000/svg">
<path d="M8 8.66671C8.36819 8.66671 8.66667 8.36823 8.66667 8.00004C8.66667 7.63185 8.36819 7.33337 8 7.33337C7.63181 7.33337 7.33334 7.63185 7.33334 8.00004C7.33334 8.36823 7.63181 8.66671 8 8.66671Z" stroke="#EBECF0" stroke-width="1.5" stroke-linecap="round" stroke-linejoin="round"/>
<path d="M8 3.99996C8.36819 3.99996 8.66667 3.70148 8.66667 3.33329C8.66667 2.9651 8.36819 2.66663 8 2.66663C7.63181 2.66663 7.33334 2.9651 7.33334 3.33329C7.33334 3.70148 7.63181 3.99996 8 3.99996Z" stroke="#EBECF0" stroke-width="1.5" stroke-linecap="round" stroke-linejoin="round"/>
<path d="M8 13.3333C8.36819 13.3333 8.66667 13.0349 8.66667 12.6667C8.66667 12.2985 8.36819 12 8 12C7.63181 12 7.33334 12.2985 7.33334 12.6667C7.33334 13.0349 7.63181 13.3333 8 13.3333Z" stroke="#EBECF0" stroke-width="1.5" stroke-linecap="round" stroke-linejoin="round"/>
</svg>
