<svg width="16" height="16" viewBox="0 0 16 16" fill="none" xmlns="http://www.w3.org/2000/svg">
<path d="M9.54268 4.35269C9.41414 4.48383 9.34213 4.66015 9.34213 4.84379C9.34213 5.02742 9.41414 5.20374 9.54268 5.33489L10.6652 6.4574C10.7963 6.58595 10.9727 6.65795 11.1563 6.65795C11.3399 6.65795 11.5163 6.58595 11.6474 6.4574L14.2923 3.81248C14.6451 4.59205 14.7519 5.46063 14.5985 6.30245C14.4451 7.14428 14.0389 7.91936 13.4338 8.52442C12.8287 9.12948 12.0536 9.53578 11.2118 9.68916C10.37 9.84254 9.50142 9.73573 8.72185 9.38295L3.87399 14.2308C3.59489 14.5099 3.21634 14.6667 2.82163 14.6667C2.42692 14.6667 2.04838 14.5099 1.76927 14.2308C1.49017 13.9517 1.33337 13.5732 1.33337 13.1785C1.33337 12.7837 1.49017 12.4052 1.76927 12.1261L6.61713 7.27824C6.26436 6.49866 6.15754 5.63008 6.31093 4.78826C6.46431 3.94644 6.8706 3.17135 7.47566 2.56629C8.08072 1.96123 8.85581 1.55494 9.69763 1.40156C10.5395 1.24817 11.408 1.35499 12.1876 1.70776L9.5497 4.34567L9.54268 4.35269Z" stroke="#FF857A" stroke-linecap="round" stroke-linejoin="round"/>
</svg>
