<svg width="20" height="20" viewBox="0 0 20 20" fill="none" xmlns="http://www.w3.org/2000/svg">
<path d="M13.1579 1.2535C13.1579 0.560507 12.6012 0 11.9079 0H1.25C0.919359 -2.72841e-06 0.602181 0.131899 0.367906 0.36683C0.13363 0.601761 0.00134355 0.920582 4.90376e-06 1.2535V16.5808C-0.000579474 16.7905 0.0510749 16.9969 0.15024 17.1813C0.249405 17.3657 0.392912 17.522 0.567626 17.6361C0.74234 17.7502 0.942679 17.8183 1.1503 17.8342C1.35793 17.8501 1.56621 17.8134 1.75608 17.7273L6.91802 15.419L12.414 12.9579C12.8694 12.7541 13.1579 12.3108 13.1579 11.8114V1.2535Z" fill="url(#paint0_linear_3821_60748)"/>
<path fill-rule="evenodd" clip-rule="evenodd" d="M1.57898 3.06306C1.57898 2.86404 1.76172 2.7027 1.98714 2.7027H11.1708C11.3962 2.7027 11.579 2.86404 11.579 3.06306C11.579 3.26208 11.3962 3.42342 11.1708 3.42342H1.98714C1.76172 3.42342 1.57898 3.26208 1.57898 3.06306Z" fill="white" fill-opacity="0.4"/>
<path fill-rule="evenodd" clip-rule="evenodd" d="M1.57898 4.5045C1.57898 4.30548 1.76172 4.14414 1.98714 4.14414H5.05141C5.27684 4.14414 5.45958 4.30548 5.45958 4.5045C5.45958 4.70352 5.27684 4.86486 5.05141 4.86486H1.98714C1.76172 4.86486 1.57898 4.70352 1.57898 4.5045Z" fill="white" fill-opacity="0.4"/>
<path fill-rule="evenodd" clip-rule="evenodd" d="M17.6899 15.5031C17.6533 15.2958 17.678 15.0821 17.7608 14.8894C17.8396 14.7005 17.9705 14.5393 18.1374 14.4258C18.3043 14.3123 18.4999 14.2514 18.7 14.2506H18.756C19.0859 14.2506 19.4023 14.116 19.6356 13.8764C19.8689 13.6368 20 13.3118 20 12.9729C20 12.6341 19.8689 12.3091 19.6356 12.0695C19.4023 11.8299 19.0859 11.6953 18.756 11.6953H18.6502C18.4501 11.6945 18.2545 11.6336 18.0877 11.5201C17.9208 11.4066 17.7899 11.2454 17.711 11.0565V11.0054C17.6282 10.8127 17.6035 10.599 17.6401 10.3917C17.6767 10.1845 17.7729 9.99329 17.9163 9.84273L17.9536 9.8044C18.0693 9.68574 18.161 9.54483 18.2236 9.38973C18.2862 9.23463 18.3184 9.06837 18.3184 8.90047C18.3184 8.73257 18.2862 8.56631 18.2236 8.41121C18.161 8.2561 18.0693 8.1152 17.9536 7.99654C17.8381 7.87775 17.7009 7.78351 17.5498 7.71921C17.3988 7.65492 17.2369 7.62182 17.0735 7.62182C16.91 7.62182 16.7481 7.65492 16.5971 7.71921C16.446 7.78351 16.3088 7.87775 16.1933 7.99654L16.156 8.03487C16.0094 8.18214 15.8232 8.28093 15.6214 8.31851C15.4196 8.35608 15.2115 8.33071 15.0239 8.24568C14.84 8.1647 14.6831 8.03024 14.5725 7.85885C14.462 7.68746 14.4027 7.48662 14.4019 7.28106V7.22356C14.4019 6.88471 14.2709 6.55974 14.0376 6.32014C13.8043 6.08053 13.4878 5.94592 13.1579 5.94592C12.828 5.94592 12.5115 6.08053 12.2782 6.32014C12.0449 6.55974 11.9139 6.88471 11.9139 7.22356V7.33216C11.9131 7.53773 11.8538 7.73857 11.7433 7.90995C11.6327 8.08134 11.4758 8.2158 11.2919 8.29678H11.2421C11.0545 8.38182 10.8464 8.40719 10.6446 8.36961C10.4428 8.33204 10.2566 8.23324 10.1101 8.08597L10.0727 8.04764C9.9572 7.92885 9.82 7.83461 9.66898 7.77032C9.51795 7.70602 9.35607 7.67293 9.19259 7.67293C9.02911 7.67293 8.86723 7.70602 8.7162 7.77032C8.56518 7.83461 8.42798 7.92885 8.31245 8.04764C8.19678 8.1663 8.10502 8.30721 8.04242 8.46231C7.97982 8.61742 7.94759 8.78367 7.94759 8.95157C7.94759 9.11948 7.97982 9.28573 8.04242 9.44083C8.10502 9.59594 8.19678 9.73685 8.31245 9.8555L8.34977 9.89383C8.49316 10.0444 8.58936 10.2356 8.62594 10.4428C8.66253 10.6501 8.63783 10.8638 8.55503 11.0565C8.48394 11.255 8.35636 11.4269 8.18885 11.55C8.02135 11.673 7.82168 11.7415 7.6158 11.7464H7.55981C7.22988 11.7464 6.91346 11.881 6.68016 12.1206C6.44686 12.3602 6.3158 12.6852 6.3158 13.0241C6.3158 13.3629 6.44686 13.6879 6.68016 13.9275C6.91346 14.1671 7.22988 14.3017 7.55981 14.3017H7.66556C7.86571 14.3025 8.06126 14.3634 8.22814 14.4769C8.39502 14.5904 8.52594 14.7516 8.60479 14.9405C8.68759 15.1332 8.71229 15.3469 8.6757 15.5542C8.63912 15.7614 8.54292 15.9526 8.39953 16.1032L8.36221 16.1415C8.24654 16.2602 8.15479 16.4011 8.09218 16.5562C8.02958 16.7113 7.99735 16.8775 7.99735 17.0454C7.99735 17.2133 8.02958 17.3796 8.09218 17.5347C8.15479 17.6898 8.24654 17.8307 8.36221 17.9494C8.47774 18.0682 8.61494 18.1624 8.76597 18.2267C8.91699 18.291 9.07887 18.3241 9.24235 18.3241C9.40583 18.3241 9.56771 18.291 9.71874 18.2267C9.86976 18.1624 10.007 18.0682 10.1225 17.9494L10.1598 17.911C10.3064 17.7638 10.4926 17.665 10.6944 17.6274C10.8962 17.5898 11.1043 17.6152 11.2919 17.7002C11.4852 17.7732 11.6526 17.9043 11.7724 18.0763C11.8922 18.2483 11.9588 18.4534 11.9636 18.6648V18.7223C11.9636 19.0612 12.0947 19.3862 12.328 19.6258C12.5613 19.8654 12.8777 20 13.2077 20C13.5376 20 13.854 19.8654 14.0873 19.6258C14.3206 19.3862 14.4517 19.0612 14.4517 18.7223V18.6137C14.4525 18.4082 14.5118 18.2073 14.6223 18.0359C14.7328 17.8646 14.8897 17.7301 15.0737 17.6491C15.2613 17.5641 15.4694 17.5387 15.6712 17.5763C15.873 17.6139 16.0592 17.7127 16.2057 17.8599L16.2431 17.8983C16.3586 18.017 16.4958 18.1113 16.6468 18.1756C16.7978 18.2399 16.9597 18.273 17.1232 18.273C17.2867 18.273 17.4486 18.2399 17.5996 18.1756C17.7506 18.1113 17.8878 18.017 18.0034 17.8983C18.119 17.7796 18.2108 17.6387 18.2734 17.4836C18.336 17.3285 18.3682 17.1622 18.3682 16.9943C18.3682 16.8264 18.336 16.6602 18.2734 16.5051C18.2108 16.35 18.119 16.2091 18.0034 16.0904L17.966 16.0521C17.8226 15.9015 17.7264 15.7103 17.6899 15.5031ZM15.2632 12.8665C15.2632 14.116 14.2735 15.129 13.0526 15.129C11.8318 15.129 10.8421 14.116 10.8421 12.8665C10.8421 11.6169 11.8318 10.604 13.0526 10.604C14.2735 10.604 15.2632 11.6169 15.2632 12.8665Z" fill="#9966FF"/>
<path fill-rule="evenodd" clip-rule="evenodd" d="M12.8947 5.94592C12.6497 5.99589 12.4227 6.11539 12.2431 6.29238C12.0009 6.53113 11.8648 6.85493 11.8648 7.19256V7.30077C11.864 7.5056 11.8024 7.70571 11.6877 7.87649C11.5729 8.04726 11.41 8.18123 11.219 8.26192H11.1674C10.9726 8.34665 10.7565 8.37193 10.547 8.33449C10.3375 8.29705 10.1442 8.19861 9.99201 8.05187L9.95326 8.01368C9.8333 7.89531 9.69085 7.80142 9.53406 7.73735C9.37726 7.67329 9.20919 7.64031 9.03945 7.64031C8.86971 7.64031 8.70164 7.67329 8.54484 7.73735C8.38804 7.80142 8.24559 7.89531 8.12564 8.01368C8.00555 8.13191 7.91028 8.27231 7.84528 8.42686C7.78028 8.5814 7.74683 8.74706 7.74683 8.91436C7.74683 9.08166 7.78028 9.24731 7.84528 9.40186C7.91028 9.5564 8.00555 9.69681 8.12564 9.81504L8.16439 9.85323C8.31327 10.0032 8.41314 10.1938 8.45113 10.4003C8.48911 10.6067 8.46347 10.8197 8.3775 11.0117C8.3037 11.2095 8.17123 11.3808 7.99732 11.5034C7.82341 11.626 7.6161 11.6942 7.40234 11.6991H7.34422C7.00166 11.6991 6.67314 11.8333 6.43091 12.072C6.18869 12.3108 6.05261 12.6346 6.05261 12.9722C6.05261 13.3098 6.18869 13.6336 6.43091 13.8724C6.67314 14.1111 7.00166 14.2452 7.34422 14.2452H7.454C7.66181 14.2461 7.86485 14.3067 8.03811 14.4198C8.11418 14.4695 8.18305 14.5283 8.24331 14.5946L10.8454 13.4536C10.7847 13.2512 10.7521 13.0369 10.7521 12.8152C10.7521 11.6204 11.6982 10.6428 12.8947 10.5657V5.94592Z" fill="url(#paint1_linear_3821_60748)"/>
<defs>
<linearGradient id="paint0_linear_3821_60748" x1="6.50674" y1="1.17397" x2="6.50674" y2="10.4629" gradientUnits="userSpaceOnUse">
<stop stop-color="#11EFE3"/>
<stop offset="0.33" stop-color="#15E8E2"/>
<stop offset="0.74" stop-color="#1FD3E0"/>
<stop offset="1" stop-color="#21CFE0"/>
</linearGradient>
<linearGradient id="paint1_linear_3821_60748" x1="12.8947" y1="5.94592" x2="12.8947" y2="14.5946" gradientUnits="userSpaceOnUse">
<stop stop-color="#0048E5"/>
<stop offset="1" stop-color="#9B66FF"/>
</linearGradient>
</defs>
</svg>
